<svg xmlns="http://www.w3.org/2000/svg" width="720" height="720" fill="none" viewBox="0 0 720 720"><g clip-path="url(#a)"><path fill="#f2f2f2" d="M720.001 360a358.58 358.58 0 0 1-84.818 232.118 313 313 0 0 1-6.091 7.013 362 362 0 0 1-84.07 69.745 360 360 0 0 1-22.073 12.22c-.76.386-1.532.772-2.292 1.146-.909.461-1.831.909-2.753 1.358a356.5 356.5 0 0 1-59.194 22.7q-3.177.9-6.365 1.744a359.5 359.5 0 0 1-82.015 11.821c-1.445.037-2.865.062-4.235.087a54 54 0 0 1-1.433.025c-1.557.012-3.1.025-4.659.025a360.3 360.3 0 0 1-95.107-12.705 356 356 0 0 1-43.561-14.985 351 351 0 0 1-22.024-10.078 297 297 0 0 1-4.871-2.491c-.685-.336-1.358-.7-2.03-1.046a361.8 361.8 0 0 1-101.709-79.8 349 349 0 0 1-5.88-6.776A360.03 360.03 0 0 1 146.594 70.06c2.043-1.507 4.1-3 6.179-4.46l1.233-.859a357.2 357.2 0 0 1 120.955-54.623c2.466-.61 4.933-1.183 7.424-1.719a363.5 363.5 0 0 1 142.854-2.5c2.479.461 4.958.934 7.424 1.445a357.9 357.9 0 0 1 120.955 49.117c.822.523 1.644 1.046 2.466 1.594a258 258 0 0 1 4.945 3.276A359.61 359.61 0 0 1 720.001 360"/><path fill="#d6d6e3" d="m269.067 546.239-115.063 10.215-1.233.112V65.597l1.233-.859a359.1 359.1 0 0 1 77.244-41.032l5.883 81.092.536 7.424 5.817 80.421 1.794 24.739 23.577 325.993zM553.616 56.453c.822.523 1.644 1.046 2.466 1.594v498.519l-2.466-.224-113.817-10.1.212-2.865 23.581-325.992 1.794-24.739 5.817-80.421.536-7.429 6.166-85.042a358.4 358.4 0 0 1 75.712 36.7z"/><path fill="#d6d6e3" d="M553.612 56.454v506.913c0 9.729-6.7 17.639-14.948 17.639H168.952c-6.826 0-12.619-5.431-14.375-12.843a20 20 0 0 1-.573-4.8V64.734l-1.233.859a307 307 0 0 0-6.179 4.46v493.314a28.55 28.55 0 0 0 7.7 19.931 21.25 21.25 0 0 0 9.691 5.8 18.8 18.8 0 0 0 4.97.66h369.715a19 19 0 0 0 4.983-.66c9.94-2.678 17.377-13.192 17.377-25.736V61.325a288 288 0 0 0-4.945-3.276 123 123 0 0 0-2.471-1.595"/><path fill="#d6d6e3" d="M557.325 104.803H150.299v7.423h407.026z"/><path fill="#d6d6e3" d="M274.959 10.115c2.466-.61 4.933-1.183 7.424-1.719v201.56h-7.424zM425.237 5.892c2.479.461 4.958.934 7.424 1.445v202.625h-7.424zM603.717 543.374H116.273a33.41 33.41 0 0 0 0 66.818h487.444a33.33 33.33 0 0 0 25.068-11.353 33.7 33.7 0 0 0 3.757-5.2 32 32 0 0 0 2.18-4.434 33.39 33.39 0 0 0-31-45.828z"/><path fill="#d6d6e3" d="M557.325 192.642H152.773v24.743h404.552z"/><path fill="#d6d6e3" d="M351.337 185.219h7.423a13.61 13.61 0 0 1 13.609 13.61h-34.641a13.61 13.61 0 0 1 13.609-13.61"/><path fill="#3f3d56" d="M635.182 592.117a360 360 0 0 1-35.028 36.06H119.848a360 360 0 0 1-35.028-36.06z"/><path fill="#2f2e41" d="M400.211 467.214h-80.869a4 4 0 0 0-1.283.2 4.3 4.3 0 0 0-3.027 4.111V599.28h89.5V471.524a4.325 4.325 0 0 0-2.67-3.984 4.3 4.3 0 0 0-1.651-.326m-30.606 63.03a9.38 9.38 0 0 1-1.943 5.73 9.55 9.55 0 0 1-17.165-5.73v-14.823a9.56 9.56 0 0 1 9.554-9.555 9.553 9.553 0 0 1 9.555 9.555z"/><path fill="#3f3d56" d="M314.758 595.194v12.32a2.416 2.416 0 0 0 2.4 2.417h85.241a2.425 2.425 0 0 0 2.4-2.417v-12.32zM534.121 267.844H188.447a11.227 11.227 0 0 0-11.211 11.2v233.263a11.22 11.22 0 0 0 11.211 11.211h345.674a11.22 11.22 0 0 0 11.211-11.211V279.043a11.226 11.226 0 0 0-11.211-11.199"/><path fill="#3282d7" d="M531.231 275.941H191.325a6 6 0 0 0-5.992 6V509.43a6 6 0 0 0 5.992 5.991h339.906a6.002 6.002 0 0 0 5.992-5.992V281.945a6 6 0 0 0-5.991-6z"/><path fill="#2f2e41" d="m468.673 609.728-3.139-14.911a3.73 3.73 0 0 0-2.317-2.7 3.6 3.6 0 0 0-1.32-.249H265.94a3.6 3.6 0 0 0-1.32.249 3.728 3.728 0 0 0-2.317 2.7l-3.139 14.911a3.73 3.73 0 0 0 .752 3.107 3.72 3.72 0 0 0 2.885 1.377h202.222a3.67 3.67 0 0 0 2.89-1.383 3.73 3.73 0 0 0 .76-3.101"/><path fill="#3f3d56" d="M273.117 594.554h-5.252a.49.49 0 0 0-.488.488v2.761c0 .27.218.488.488.488h5.252a.49.49 0 0 0 .488-.488v-2.761a.49.49 0 0 0-.488-.488M285.573 594.554h-5.252a.49.49 0 0 0-.488.488v2.761c0 .27.218.488.488.488h5.252a.49.49 0 0 0 .488-.488v-2.761a.49.49 0 0 0-.488-.488M298.03 594.554h-5.252a.49.49 0 0 0-.488.488v2.761c0 .27.218.488.488.488h5.252a.49.49 0 0 0 .488-.488v-2.761a.49.49 0 0 0-.488-.488M310.487 594.554h-5.252a.49.49 0 0 0-.488.488v2.761c0 .27.218.488.488.488h5.252a.49.49 0 0 0 .488-.488v-2.761a.49.49 0 0 0-.488-.488M322.943 594.554h-5.252a.49.49 0 0 0-.488.488v2.761c0 .27.218.488.488.488h5.252c.27 0 .488-.218.488-.488v-2.761a.49.49 0 0 0-.488-.488M335.4 594.554h-5.252a.49.49 0 0 0-.488.488v2.761c0 .27.218.488.488.488h5.252a.49.49 0 0 0 .488-.488v-2.761a.49.49 0 0 0-.488-.488M347.857 594.554h-5.252a.49.49 0 0 0-.488.488v2.761c0 .27.218.488.488.488h5.252c.27 0 .488-.218.488-.488v-2.761a.49.49 0 0 0-.488-.488M360.314 594.554h-5.252a.49.49 0 0 0-.488.488v2.761c0 .27.218.488.488.488h5.252a.49.49 0 0 0 .488-.488v-2.761a.49.49 0 0 0-.488-.488M372.77 594.554h-5.252a.49.49 0 0 0-.488.488v2.761c0 .27.219.488.488.488h5.252c.27 0 .488-.218.488-.488v-2.761a.49.49 0 0 0-.488-.488M385.227 594.554h-5.252a.49.49 0 0 0-.488.488v2.761c0 .27.218.488.488.488h5.252a.49.49 0 0 0 .488-.488v-2.761a.49.49 0 0 0-.488-.488M397.684 594.554h-5.252a.49.49 0 0 0-.488.488v2.761c0 .27.218.488.488.488h5.252a.49.49 0 0 0 .488-.488v-2.761a.49.49 0 0 0-.488-.488M410.14 594.554h-5.252a.49.49 0 0 0-.488.488v2.761c0 .27.219.488.488.488h5.252c.27 0 .488-.218.488-.488v-2.761a.49.49 0 0 0-.488-.488M422.597 594.554h-5.252a.49.49 0 0 0-.488.488v2.761c0 .27.218.488.488.488h5.252a.49.49 0 0 0 .488-.488v-2.761a.49.49 0 0 0-.488-.488M435.054 594.554h-5.252a.49.49 0 0 0-.488.488v2.761c0 .27.218.488.488.488h5.252a.49.49 0 0 0 .488-.488v-2.761a.49.49 0 0 0-.488-.488M447.511 594.554h-5.252a.49.49 0 0 0-.488.488v2.761c0 .27.218.488.488.488h5.252c.27 0 .488-.218.488-.488v-2.761a.49.49 0 0 0-.488-.488M459.967 594.554h-5.252a.49.49 0 0 0-.488.488v2.761c0 .27.218.488.488.488h5.252a.49.49 0 0 0 .488-.488v-2.761a.49.49 0 0 0-.488-.488M272.969 600.782h-5.252a.487.487 0 0 0-.488.488v2.761c0 .269.218.488.488.488h5.252c.27 0 .488-.219.488-.488v-2.761a.487.487 0 0 0-.488-.488M285.426 600.782h-5.252a.487.487 0 0 0-.488.488v2.761c0 .269.218.488.488.488h5.252a.49.49 0 0 0 .488-.488v-2.761a.49.49 0 0 0-.488-.488M297.883 600.782h-5.252a.487.487 0 0 0-.488.488v2.761c0 .269.218.488.488.488h5.252c.27 0 .488-.219.488-.488v-2.761a.487.487 0 0 0-.488-.488M310.34 600.782h-5.252a.487.487 0 0 0-.488.488v2.761c0 .269.218.488.488.488h5.252a.49.49 0 0 0 .488-.488v-2.761a.49.49 0 0 0-.488-.488M322.796 600.782h-5.252a.487.487 0 0 0-.488.488v2.761c0 .269.218.488.488.488h5.252a.49.49 0 0 0 .488-.488v-2.761a.49.49 0 0 0-.488-.488M335.253 600.782h-5.252a.487.487 0 0 0-.488.488v2.761c0 .269.218.488.488.488h5.252c.27 0 .488-.219.488-.488v-2.761a.487.487 0 0 0-.488-.488M347.71 600.782h-5.252a.487.487 0 0 0-.488.488v2.761c0 .269.218.488.488.488h5.252a.49.49 0 0 0 .488-.488v-2.761a.49.49 0 0 0-.488-.488M360.166 600.782h-5.252a.49.49 0 0 0-.488.488v2.761c0 .269.219.488.488.488h5.252c.27 0 .488-.219.488-.488v-2.761a.487.487 0 0 0-.488-.488M372.623 600.782h-5.252a.487.487 0 0 0-.488.488v2.761c0 .269.218.488.488.488h5.252a.49.49 0 0 0 .488-.488v-2.761a.49.49 0 0 0-.488-.488M385.08 600.782h-5.252a.487.487 0 0 0-.488.488v2.761c0 .269.218.488.488.488h5.252a.49.49 0 0 0 .488-.488v-2.761a.49.49 0 0 0-.488-.488M397.536 600.782h-5.252a.49.49 0 0 0-.488.488v2.761c0 .269.219.488.488.488h5.252c.27 0 .488-.219.488-.488v-2.761a.487.487 0 0 0-.488-.488M409.993 600.782h-5.252a.487.487 0 0 0-.488.488v2.761c0 .269.218.488.488.488h5.252a.49.49 0 0 0 .488-.488v-2.761a.49.49 0 0 0-.488-.488M422.45 600.782h-5.252a.487.487 0 0 0-.488.488v2.761c0 .269.218.488.488.488h5.252a.49.49 0 0 0 .488-.488v-2.761a.49.49 0 0 0-.488-.488M434.907 600.782h-5.252a.487.487 0 0 0-.488.488v2.761c0 .269.218.488.488.488h5.252c.27 0 .488-.219.488-.488v-2.761a.487.487 0 0 0-.488-.488M447.363 600.782h-5.252a.487.487 0 0 0-.488.488v2.761c0 .269.218.488.488.488h5.252a.49.49 0 0 0 .488-.488v-2.761a.49.49 0 0 0-.488-.488M459.82 600.782h-5.252a.487.487 0 0 0-.488.488v2.761c0 .269.218.488.488.488h5.252a.49.49 0 0 0 .488-.488v-2.761a.49.49 0 0 0-.488-.488M376.361 608.256H327.51a.487.487 0 0 0-.488.488v2.761c0 .269.218.488.488.488h48.851a.49.49 0 0 0 .488-.488v-2.761a.49.49 0 0 0-.488-.488M514.15 307.278H196.101c-.335 0-.657-.133-.894-.371a1.26 1.26 0 0 1 0-1.789c.237-.237.559-.37.894-.37H514.15a1.263 1.263 0 0 1 .894 2.159 1.26 1.26 0 0 1-.894.371M217.751 298.29c4.094 0 7.412-3.392 7.412-7.577s-3.318-7.577-7.412-7.577-7.412 3.392-7.412 7.577 3.318 7.577 7.412 7.577M243.357 298.29c4.093 0 7.412-3.392 7.412-7.577s-3.319-7.577-7.412-7.577c-4.094 0-7.412 3.392-7.412 7.577s3.318 7.577 7.412 7.577M268.963 298.29c4.093 0 7.412-3.392 7.412-7.577s-3.319-7.577-7.412-7.577c-4.094 0-7.412 3.392-7.412 7.577s3.318 7.577 7.412 7.577M498.731 285.01h-18.187a1.38 1.38 0 0 0-1.34 1.377 1.38 1.38 0 0 0 1.34 1.376h18.187a1.37 1.37 0 0 0 .998-.39 1.39 1.39 0 0 0 .416-.986 1.39 1.39 0 0 0-.416-.987 1.38 1.38 0 0 0-.998-.39M498.731 290.179h-18.187a1.38 1.38 0 0 0-1.34 1.377 1.38 1.38 0 0 0 1.34 1.376h18.187a1.376 1.376 0 1 0 0-2.753M498.731 295.349h-18.187a1.38 1.38 0 0 0-1.34 1.377 1.38 1.38 0 0 0 1.34 1.376h18.187a1.37 1.37 0 0 0 .998-.39 1.39 1.39 0 0 0 .416-.986 1.39 1.39 0 0 0-.416-.987 1.37 1.37 0 0 0-.998-.39"/><path fill="#e6e6e6" d="M224.233 336.672h-7.95a2.88 2.88 0 0 0-2.88 2.88v1.415a2.88 2.88 0 0 0 2.88 2.88h7.95a2.88 2.88 0 0 0 2.88-2.88v-1.415a2.88 2.88 0 0 0-2.88-2.88M298.973 336.672h-7.95a2.88 2.88 0 0 0-2.88 2.88v1.415a2.88 2.88 0 0 0 2.88 2.88h7.95a2.88 2.88 0 0 0 2.88-2.88v-1.415a2.88 2.88 0 0 0-2.88-2.88M320.149 336.672h-7.95a2.88 2.88 0 0 0-2.88 2.88v1.415a2.88 2.88 0 0 0 2.88 2.88h7.95a2.88 2.88 0 0 0 2.88-2.88v-1.415a2.88 2.88 0 0 0-2.88-2.88M278.644 336.073h-42.031a2.88 2.88 0 0 0-2.88 2.88v1.415a2.88 2.88 0 0 0 2.88 2.88h42.031a2.88 2.88 0 0 0 2.88-2.88v-1.415a2.88 2.88 0 0 0-2.88-2.88M378.297 336.073h-42.031a2.88 2.88 0 0 0-2.88 2.88v1.415a2.88 2.88 0 0 0 2.88 2.88h42.031a2.88 2.88 0 0 0 2.88-2.88v-1.415a2.88 2.88 0 0 0-2.88-2.88M244.163 352.866h-7.95a2.88 2.88 0 0 0-2.88 2.88v1.415a2.88 2.88 0 0 0 2.88 2.88h7.95a2.88 2.88 0 0 0 2.88-2.88v-1.415a2.88 2.88 0 0 0-2.88-2.88M318.904 352.866h-7.95a2.88 2.88 0 0 0-2.88 2.88v1.415a2.88 2.88 0 0 0 2.88 2.88h7.95a2.88 2.88 0 0 0 2.88-2.88v-1.415a2.88 2.88 0 0 0-2.88-2.88M340.08 352.866h-7.95a2.88 2.88 0 0 0-2.88 2.88v1.415a2.88 2.88 0 0 0 2.88 2.88h7.95a2.88 2.88 0 0 0 2.88-2.88v-1.415a2.88 2.88 0 0 0-2.88-2.88M298.574 352.267h-42.031a2.88 2.88 0 0 0-2.88 2.88v1.415a2.88 2.88 0 0 0 2.88 2.88h42.031a2.88 2.88 0 0 0 2.88-2.88v-1.415a2.88 2.88 0 0 0-2.88-2.88M398.228 352.267h-42.031a2.88 2.88 0 0 0-2.88 2.88v1.415a2.88 2.88 0 0 0 2.88 2.88h42.031a2.88 2.88 0 0 0 2.88-2.88v-1.415a2.88 2.88 0 0 0-2.88-2.88M264.094 369.059h-7.95a2.88 2.88 0 0 0-2.88 2.88v1.415a2.88 2.88 0 0 0 2.88 2.88h7.95a2.88 2.88 0 0 0 2.88-2.88v-1.415a2.88 2.88 0 0 0-2.88-2.88M338.834 369.059h-7.95a2.88 2.88 0 0 0-2.88 2.88v1.415a2.88 2.88 0 0 0 2.88 2.88h7.95a2.88 2.88 0 0 0 2.88-2.88v-1.415a2.88 2.88 0 0 0-2.88-2.88M360.011 369.059h-7.95a2.88 2.88 0 0 0-2.88 2.88v1.415a2.88 2.88 0 0 0 2.88 2.88h7.95a2.88 2.88 0 0 0 2.88-2.88v-1.415a2.88 2.88 0 0 0-2.88-2.88M318.505 368.461h-42.031a2.88 2.88 0 0 0-2.88 2.88v1.415a2.88 2.88 0 0 0 2.88 2.88h42.031a2.88 2.88 0 0 0 2.88-2.88v-1.415a2.88 2.88 0 0 0-2.88-2.88M418.159 368.461h-42.031a2.88 2.88 0 0 0-2.88 2.88v1.415a2.88 2.88 0 0 0 2.88 2.88h42.031a2.88 2.88 0 0 0 2.88-2.88v-1.415a2.88 2.88 0 0 0-2.88-2.88M284.025 385.253h-7.95a2.88 2.88 0 0 0-2.88 2.88v1.415a2.88 2.88 0 0 0 2.88 2.88h7.95a2.88 2.88 0 0 0 2.88-2.88v-1.415a2.88 2.88 0 0 0-2.88-2.88M358.765 385.253h-7.95a2.88 2.88 0 0 0-2.88 2.88v1.415a2.88 2.88 0 0 0 2.88 2.88h7.95a2.88 2.88 0 0 0 2.88-2.88v-1.415a2.88 2.88 0 0 0-2.88-2.88M379.942 385.253h-7.95a2.88 2.88 0 0 0-2.88 2.88v1.415a2.88 2.88 0 0 0 2.88 2.88h7.95a2.88 2.88 0 0 0 2.88-2.88v-1.415a2.88 2.88 0 0 0-2.88-2.88M338.436 384.655h-42.031a2.88 2.88 0 0 0-2.88 2.88v1.415a2.88 2.88 0 0 0 2.88 2.88h42.031a2.88 2.88 0 0 0 2.88-2.88v-1.415a2.88 2.88 0 0 0-2.88-2.88M298.973 449.646h-7.95a2.88 2.88 0 0 0-2.88 2.88v1.415a2.88 2.88 0 0 0 2.88 2.88h7.95a2.88 2.88 0 0 0 2.88-2.88v-1.415a2.88 2.88 0 0 0-2.88-2.88M320.149 449.646h-7.95a2.88 2.88 0 0 0-2.88 2.88v1.415a2.88 2.88 0 0 0 2.88 2.88h7.95a2.88 2.88 0 0 0 2.88-2.88v-1.415a2.88 2.88 0 0 0-2.88-2.88M378.297 450.244h-42.031a2.88 2.88 0 0 0-2.88 2.88v1.415a2.88 2.88 0 0 0 2.88 2.88h42.031a2.88 2.88 0 0 0 2.88-2.88v-1.415a2.88 2.88 0 0 0-2.88-2.88M224.233 449.646h-7.95a2.88 2.88 0 0 0-2.88 2.88v1.415a2.88 2.88 0 0 0 2.88 2.88h7.95a2.88 2.88 0 0 0 2.88-2.88v-1.415a2.88 2.88 0 0 0-2.88-2.88M278.644 450.244h-42.031a2.88 2.88 0 0 0-2.88 2.88v1.415a2.88 2.88 0 0 0 2.88 2.88h42.031a2.88 2.88 0 0 0 2.88-2.88v-1.415a2.88 2.88 0 0 0-2.88-2.88M244.163 433.452h-7.95a2.88 2.88 0 0 0-2.88 2.88v1.415a2.88 2.88 0 0 0 2.88 2.88h7.95a2.88 2.88 0 0 0 2.88-2.88v-1.415a2.88 2.88 0 0 0-2.88-2.88M318.904 433.452h-7.95a2.88 2.88 0 0 0-2.88 2.88v1.415a2.88 2.88 0 0 0 2.88 2.88h7.95a2.88 2.88 0 0 0 2.88-2.88v-1.415a2.88 2.88 0 0 0-2.88-2.88M340.08 433.452h-7.95a2.88 2.88 0 0 0-2.88 2.88v1.415a2.88 2.88 0 0 0 2.88 2.88h7.95a2.88 2.88 0 0 0 2.88-2.88v-1.415a2.88 2.88 0 0 0-2.88-2.88M298.574 434.05h-42.031a2.88 2.88 0 0 0-2.88 2.88v1.415a2.88 2.88 0 0 0 2.88 2.88h42.031a2.88 2.88 0 0 0 2.88-2.88v-1.415a2.88 2.88 0 0 0-2.88-2.88M264.094 417.258h-7.95a2.88 2.88 0 0 0-2.88 2.88v1.415a2.88 2.88 0 0 0 2.88 2.88h7.95a2.88 2.88 0 0 0 2.88-2.88v-1.415a2.88 2.88 0 0 0-2.88-2.88M338.834 417.258h-7.95a2.88 2.88 0 0 0-2.88 2.88v1.415a2.88 2.88 0 0 0 2.88 2.88h7.95a2.88 2.88 0 0 0 2.88-2.88v-1.415a2.88 2.88 0 0 0-2.88-2.88M360.011 417.258h-7.95a2.88 2.88 0 0 0-2.88 2.88v1.415a2.88 2.88 0 0 0 2.88 2.88h7.95a2.88 2.88 0 0 0 2.88-2.88v-1.415a2.88 2.88 0 0 0-2.88-2.88M318.505 417.856h-42.031a2.88 2.88 0 0 0-2.88 2.88v1.415a2.88 2.88 0 0 0 2.88 2.88h42.031a2.88 2.88 0 0 0 2.88-2.88v-1.415a2.88 2.88 0 0 0-2.88-2.88M284.025 401.065h-7.95a2.88 2.88 0 0 0-2.88 2.88v1.415a2.88 2.88 0 0 0 2.88 2.88h7.95a2.88 2.88 0 0 0 2.88-2.88v-1.415a2.88 2.88 0 0 0-2.88-2.88M358.765 401.065h-7.95a2.88 2.88 0 0 0-2.88 2.88v1.415a2.88 2.88 0 0 0 2.88 2.88h7.95a2.88 2.88 0 0 0 2.88-2.88v-1.415a2.88 2.88 0 0 0-2.88-2.88M379.942 401.065h-7.95a2.88 2.88 0 0 0-2.88 2.88v1.415a2.88 2.88 0 0 0 2.88 2.88h7.95a2.88 2.88 0 0 0 2.88-2.88v-1.415a2.88 2.88 0 0 0-2.88-2.88M338.436 401.663h-42.031a2.88 2.88 0 0 0-2.88 2.88v1.415a2.88 2.88 0 0 0 2.88 2.88h42.031a2.88 2.88 0 0 0 2.88-2.88v-1.415a2.88 2.88 0 0 0-2.88-2.88"/><path fill="#ffb9b9" d="M332.627 416.948s20.613 28.936 13.251 36.771 55.23 8.03 55.23 8.03-9.4-42.094-6.635-51.781z"/><path fill="#3f3d56" d="M517.964 683.587c-.76.386-1.532.772-2.292 1.146-19.682 9.841-35.427 15.434-56.964 21.563-1.819-20.3-3.575-55.993-5.282-78.116-.448-5.742-.9-10.563-1.333-13.964a19 19 0 0 0-1.1-5.294l.075 5.294.187 13.964 1.084 79.86a359.5 359.5 0 0 1-82.015 11.821c-1.445.037-2.865.062-4.235.087-.486.012-.959.025-1.433.025-1.557.013-3.1.025-4.659.025a360.3 360.3 0 0 1-86.624-10.5c.61-20.093 1.221-55.383 1.806-81.318.125-5.07.237-9.791.361-13.964.237-8.919.486-15.347.723-17.5q-.316.575-.486 1.208a121 121 0 0 0-2.354 16.293 782 782 0 0 0-1.308 13.964c-2.317 26.944-4.733 63.579-7.225 79.113a356 356 0 0 1-43.561-14.985 353 353 0 0 1-22.02-10.079c1.37-8.969 2.8-19.021 4.273-29.448a4591 4591 0 0 1 3.538-24.6c1.868-12.681 3.787-25.113 5.73-36.062 2.84-15.994 5.755-28.85 8.645-34.754a1881 1881 0 0 1 8.134-16.43c.922-1.856 1.844-3.687 2.741-5.468.212-.424.424-.835.635-1.246a1116 1116 0 0 1 5.506-10.7 635 635 0 0 1 4.3-8.1c3.289-6.079 6.079-10.925 8.147-13.989a68.83 68.83 0 0 1 36.473-27.666l.374-.1.262.112 25.474-7.823 3.725-1.146 2.5-.772 8.819-6.714 4.8-3.65 4.5-3.426 8.794-6.689 54.448 3.351 10.6 25.524 23.742 8.682.411-.187.361-.149.374.1a68.9 68.9 0 0 1 36.473 27.666c1.171 1.756 2.591 4.073 4.2 6.876a334 334 0 0 1 4.484 8.1c2.3 4.273 4.821 9.093 7.487 14.313.585 1.146 1.183 2.317 1.781 3.5a1589 1589 0 0 1 3.376 6.714 1708 1708 0 0 1 8.134 16.443c2.379 4.871 4.783 14.886 7.15 27.629 1.956 10.588 3.9 23.07 5.78 36.062 2.466 16.842-.162 37.009 2.068 52.505.13.981.279 1.94.416 2.899"/><path fill="#ffb9b9" d="M360.767 423.186c34.974 0 63.326-28.352 63.326-63.326s-28.352-63.326-63.326-63.326-63.326 28.352-63.326 63.326 28.352 63.326 63.326 63.326"/><path fill="#c6934f" d="M465.198 275.941a33.2 33.2 0 0 0-4.945-8.1c-9.617-11.747-27.106-16.916-45.056-3.015a19.04 19.04 0 0 0-10.4.6 16 16 0 0 0-4.385 2.417 19.9 19.9 0 0 0-6.154 8.1 19.3 19.3 0 0 0-1.37 5.269 63 63 0 0 0-13.989-5.269 75.2 75.2 0 0 0-36.286 0 45.5 45.5 0 0 0-10.937 4.335c-5.83 3.363-9.181 7.611-9.779 12.332-8.408.473-17.153 4.9-23.668 12.145a37 37 0 0 0-2.105 2.529 40.74 40.74 0 0 0-8.372 24.974v1.582h1.582a33.5 33.5 0 0 1 12.644 2.466 34.3 34.3 0 0 1 7.337 4.048 36 36 0 0 1 4.2 3.488 41.7 41.7 0 0 1 7.624 10.028 46.66 46.66 0 0 1 5.082 30.781 45 45 0 0 1-1.893 7.175 46.8 46.8 0 0 1-4.622 9.5c-.075.112-.137.224-.212.336a78 78 0 0 0-2.379 4.061 52 52 0 0 0-1.57 3.114 64.6 64.6 0 0 0-3.587 9.019 66.7 66.7 0 0 0-3.04 16.866 51 51 0 0 0-.062 4.559c.074 3.917.503 7.82 1.283 11.66l.336 1.557.909 3.974 2.155 9.48 1.495 6.527 1.383 6.054 2.043-2.927c.7-1 2.454-4.061 4.808-8.4 1.557-2.828 3.363-6.2 5.319-9.891a1275 1275 0 0 0 12.133-23.605c2.143-4.3 4.161-8.446 5.892-12.133 1.594-3.4 2.952-6.415 3.961-8.832.311 1.582.573 3.189.772 4.808.224 1.644.386 3.313.473 4.983.025.249.037.511.05.76l.05 1.022.012.3 1.32.174a116 116 0 0 0 22.92.174h.012a93.3 93.3 0 0 0 29.348-7.113 61.4 61.4 0 0 0 14.7-9.019 51.5 51.5 0 0 0 7.108-7.175 51.3 51.3 0 0 0 6.291-9.841 52 52 0 0 0 2.915-7.175c4.783-14.487 4.509-32.562-.822-54.037a12.4 12.4 0 0 0 4.073-1.57c3.911-2.354 6.627-7.026 7.474-12.731l1.345.361a37.5 37.5 0 0 0 12.469-9.392 30 30 0 0 0 1.918-2.529c6.096-8.962 6.146-19.723 2.197-28.804"/><path fill="#000" d="m257.009 592.063 10.58-40.852 9.346 35.247z" opacity=".2"/><path fill="#090814" d="M538.667 565.447c-3.787 52.169.137 75.139-20.765 118.152a356.5 356.5 0 0 1-59.194 22.7q-3.177.9-6.365 1.744a359.5 359.5 0 0 1-82.015 11.822c-1.445.037-2.865.062-4.235.087a54 54 0 0 1-1.433.025c-1.557.012-3.1.025-4.659.025a360.3 360.3 0 0 1-95.107-12.705 356 356 0 0 1-43.561-14.985 351 351 0 0 1-22.024-10.078 297 297 0 0 1-4.871-2.491c-8.259-14.524-12.955-32.188-13.055-53.414 5.719-36.579 344.653-92.422 357.284-60.882"/><path fill="#000" d="M538.658 574.381c.193-3.23.41-6.566.662-10.04-12.631-31.54-351.566 24.3-357.284 60.876.016 3.353.159 6.607.4 9.784 13.847-36.097 335.84-89.172 356.222-60.62" opacity=".2"/><path fill="#090814" d="M203.165 426.208a7.93 7.93 0 0 0-2.275-6.158 7.932 7.932 0 0 0-6.137-2.332q-.633.025-1.252.157l-49.53 11.189a8.15 8.15 0 0 0-5.243 4.03c-.726.027-1.448.132-2.152.313a12.038 12.038 0 0 0-9.353 9.699 12.032 12.032 0 0 0 14.675 13.773 12.2 12.2 0 0 0 4.851-2.347l16.784 47.262a7.88 7.88 0 0 0 8.646 3.795l32.2-7.277a7.99 7.99 0 0 0 6.142-7.12zm-62.011 27.308a8.6 8.6 0 0 1-6.496-1.102 8.609 8.609 0 0 1 2.662-15.682c.156-.039.313 0 .47-.039a8.1 8.1 0 0 0 1.056 4.069l6.142 10.717a8.1 8.1 0 0 1-3.834 2.037"/><path fill="#3f3d56" d="M194.754 417.718c.47 6.26-10.25 13.459-24.609 16.315-13.185 2.7-25 .821-28.326-4.108a7.5 7.5 0 0 1 2.152-.861l49.53-11.189a7.3 7.3 0 0 1 1.253-.157"/><path fill="#ffb9b9" d="m160.498 576.628 27.82-13.91-23.184-62.6-6.11-31.568a23.87 23.87 0 0 0-27.861-18.919 23.9 23.9 0 0 0-11.106 5.332 23.868 23.868 0 0 0-3.1 33.033l22.68 28.35z"/><path fill="#3f3d56" d="m188.319 551.125-37.093 18.547 28.15 88.2a38.59 38.59 0 0 0 27.823 25.806 38.58 38.58 0 0 0 42.027-17.68l74.644-127.949a39.388 39.388 0 1 0-69.124-37.641l-45.562 97.083z"/><path fill="#3282d7" d="M176.846 471.413a.6.6 0 0 1-.2-.034l-8.1-2.788a.62.62 0 0 1-.402-.436.63.63 0 0 1 .146-.574l6.023-6.558a.632.632 0 0 1 .436-.22.64.64 0 0 1 .461.163.6.6 0 0 1 .147.202.64.64 0 0 1 .01.489.6.6 0 0 1-.137.208l-5.38 5.857 7.2 2.479a.624.624 0 0 1-.2 1.212zM187.946 469.141a.62.62 0 0 1-.577-.389.624.624 0 0 1 .144-.681l5.474-5.293-7.354-3.03a.623.623 0 0 1 .474-1.151l8.233 3.393a.625.625 0 0 1 .36.763.6.6 0 0 1-.16.26l-6.158 5.953a.62.62 0 0 1-.433.175zM178.545 475.224a.625.625 0 0 1-.62-.564.6.6 0 0 1 .025-.242l5.748-18.685a.6.6 0 0 1 .304-.367.62.62 0 0 1 .689.071.62.62 0 0 1 .198.663l-5.748 18.685a.62.62 0 0 1-.596.439"/></g><defs><clipPath id="a"><path fill="#fff" d="M0 0h720v719.998H0z"/></clipPath></defs></svg>